<svg width="32" height="32" viewBox="0 0 32 32" xmlns="http://www.w3.org/2000/svg">
  <style>
    .chip { fill: #FBF7EE; }
    .ink { fill: #221C16; }
    .notch { fill: #FBF7EE; }
    @media (prefers-color-scheme: dark) {
      .chip { fill: #2B2017; }
      .ink { fill: #F6F1E6; }
      .notch { fill: #2B2017; }
    }
  </style>
  <rect class="chip" width="32" height="32" rx="7"/>
  <!-- The Open Heart-Book, favicon-tuned redraw (004 section 03, the 32px variant):
       two open covers as solid wedges + a solid heart from the page-tops + a
       knocked-out spine notch so it reads "book + heart", not just "heart".
       Glyph viewBox 0 0 46 44, fit into the chip centered with padding. -->
  <g transform="translate(5 5.2) scale(0.478)">
    <path class="ink" d="M23 35 C18 31 11.5 30.5 6 32.4 L6 20.5 C11.5 18.6 18 19.4 23 23.5 Z"/>
    <path class="ink" d="M23 35 C28 31 34.5 30.5 40 32.4 L40 20.5 C34.5 18.6 28 19.4 23 23.5 Z"/>
    <path class="ink" d="M23 14 C23 8 17 6 13 9 C9 12 11 17 23 25 C35 17 37 12 33 9 C29 6 23 8 23 14 Z"/>
    <path class="notch" stroke-width="0" d="M22.3 14 H23.7 V24 H22.3 Z"/>
  </g>
</svg>
